EMG
version=1
nRows=24
nColumns=17
inDegrees=no
endheader
time	_right_gast_med	_right_glut_max	_left_gast_med	_left_glut_max	_right_glut_med	_right_bic_fem	_right_rect_fem	_right_vast_lat	_right_vast_med	_right_tens_fasc_lat	_left_glut_med	_left_bic_fem	_left_rect_fem	_left_vast_lat	_left_vast_med	_left_tens_fasc_lat
      0.00000000	      2.13620424	     -0.18099292	     -0.02789012	      0.18274090	     -0.02457468	     -0.03113143	      0.10797700	     -0.01731887	     -0.00714020	     -0.02188894	      0.05427277	     -0.00977264	      0.03098551	     -0.09394503	     -0.09570426	     -0.03928663
      0.01000000	      1.11920178	     -0.38942891	      0.00581158	      0.16500002	     -0.00455858	     -0.03741999	      0.07702535	      0.00044577	     -0.02569198	     -0.00365179	      0.06932337	     -0.02800252	      0.02800484	     -0.08329454	     -0.13486625	      0.00106405
      0.02000000	     -0.16703437	      0.05875124	      0.02567125	      0.15726702	      0.00724641	     -0.03617655	      0.05535324	      0.03219160	     -0.02551400	     -0.00884241	      0.04653415	     -0.04562953	      0.01577032	     -0.06844718	     -0.14124033	      0.03081089
      0.03000000	      1.49971282	      0.54611623	      0.00533930	      0.07269080	     -0.00917136	     -0.02288913	      0.05896299	      0.06055385	      0.00267984	     -0.03334369	      0.01741183	     -0.08130252	      0.01114598	     -0.03601363	     -0.09611992	      0.03947286
      0.04000000	      0.55336100	      0.39797282	      0.00631076	     -0.05393792	     -0.03433964	      0.00723282	      0.02608062	      0.14579321	      0.05138966	     -0.00407576	      0.01676575	     -0.04562673	      0.01428087	      0.02888389	     -0.01281129	      0.04095059
      0.05000000	     -2.08102226	      0.13778026	      0.00407748	     -0.10933503	     -0.03977538	      0.01821600	      0.01115849	      0.25054684	      0.07373355	      0.02164890	     -0.00043996	     -0.04162797	      0.02544963	      0.09146413	      0.06735091	      0.04222468
      0.06000000	     -0.06445491	     -0.01919391	     -0.01952475	     -0.14051901	     -0.02544318	     -0.00151704	      0.02733894	      0.18323493	      0.01566328	      0.01521076	     -0.03027090	     -0.00729483	      0.01848977	      0.06689638	      0.12683085	      0.04001522
      0.07000000	      2.15248990	     -0.09603152	      0.01823712	     -0.12906818	     -0.00559669	     -0.01764641	      0.02418972	     -0.01850200	     -0.10979912	      0.01314830	     -0.02815230	      0.05472096	     -0.01744259	      0.00576931	      0.17357697	      0.04140325
      0.08000000	      0.87452066	     -0.08821491	      0.10156982	     -0.02598528	      0.00466482	     -0.01439254	      0.03766752	     -0.15178715	     -0.17968608	      0.00334209	      0.00418687	      0.06842216	     -0.01861550	     -0.02038621	      0.22246520	      0.02754833
      0.09000000	     -0.22942397	      0.03531714	      0.02292483	      0.03654042	      0.00288961	      0.00422276	      0.04459170	     -0.19580017	     -0.12268762	      0.00373974	      0.04824093	      0.02168596	      0.00762188	      0.00277484	      0.10059885	     -0.00126418
      0.10000000	      0.55943972	      0.17410879	     -0.05582824	      0.00195416	      0.00917129	      0.03306000	      0.02550751	     -0.20055690	     -0.06142168	      0.00859681	      0.07528484	      0.01630720	      0.00835411	      0.02006390	     -0.37404853	     -0.05711933
      0.11000000	      1.44163013	     -0.00077897	     -0.03105672	     -0.02717576	      0.01485091	      0.04915410	     -0.00365997	     -0.15646052	     -0.06627034	      0.00498681	      0.07726949	      0.01850551	      0.00043950	     -0.00200127	     -0.63709444	     -0.10927758
      0.12000000	      0.54734945	     -0.32087043	     -0.00961930	     -0.01331506	      0.01358013	      0.04323556	     -0.00212877	     -0.07744634	     -0.11255030	     -0.01209493	      0.04638294	      0.01815007	      0.00494545	     -0.02874307	     -0.13091807	     -0.06865165
      0.13000000	     -2.00293827	     -0.32414386	      0.05036261	      0.01430916	      0.02618542	      0.02215773	      0.01829936	     -0.00005723	     -0.13000211	     -0.01565634	     -0.00685172	      0.03201220	      0.00291707	      0.02626208	      0.47930172	      0.02536654
      0.14000000	     -3.23400497	     -0.16688715	      0.03852803	      0.05855904	      0.03821143	      0.02190029	     -0.00597921	      0.03991739	     -0.08494923	      0.00669791	     -0.05364219	      0.01201051	     -0.01482568	      0.10222109	      0.55326515	      0.05386855
      0.15000000	     -2.18011022	     -0.07247118	      0.01233707	      0.06345036	      0.00607451	      0.03289902	     -0.04768222	      0.03891069	     -0.05084338	     -0.00964765	     -0.08369552	     -0.02234272	     -0.01117549	      0.09008879	      0.31681022	     -0.00889713
      0.16000000	     -0.65389460	     -0.05523369	      0.02812942	      0.00328465	     -0.06402988	      0.01365437	     -0.00891724	      0.03003676	     -0.04212771	     -0.06030778	     -0.10052609	     -0.02544686	      0.03618990	      0.03058761	      0.10352615	     -0.06297299
      0.17000000	      0.07795298	     -0.01676170	      0.05738898	     -0.02156472	     -0.09487633	     -0.00535335	      0.02120913	      0.04322646	     -0.03626923	     -0.02487798	     -0.10693808	     -0.03611536	      0.00444186	      0.02087326	     -0.09539390	     -0.00972559
      0.18000000	      0.27571929	      0.12261277	      0.01060429	      0.01286287	     -0.07541689	      0.00060652	     -0.03989848	      0.06655503	     -0.02716265	      0.05904838	     -0.07986815	     -0.05976370	     -0.01677098	     -0.00437291	     -0.36863658	      0.08668249
      0.19000000	      0.32405603	      0.21224065	      0.03814048	     -0.02198265	     -0.02981812	      0.00586012	     -0.04709369	      0.05073705	     -0.02161367	      0.04889722	     -0.02399999	      0.02879741	      0.06852886	     -0.04143314	     -0.41061881	      0.13251998
      0.20000000	      0.30253169	      0.03727926	      0.00029225	     -0.05338911	      0.02842496	      0.00187380	     -0.00692482	      0.02215073	     -0.01798710	     -0.00826387	     -0.01295491	      0.08208507	      0.08565297	      0.06988571	      0.11030301	      0.04688301
      0.21000000	      0.20717221	     -0.44549721	      0.01231685	      0.09512725	      0.08148042	      0.00023377	      0.00306217	      0.02530910	     -0.00932703	     -0.01302130	     -0.05018375	      0.02080910	      0.04850934	      0.00537415	      0.41139460	      0.04488662
      0.22000000	      0.32262692	     -0.63909578	     -0.02560187	      0.07094691	      0.10570627	     -0.01045647	      0.02374001	      0.03315461	     -0.00569559	      0.00625945	      0.02290482	     -0.02326728	     -0.10144439	     -0.01277065	      0.17847466	      0.08089577
      0.23000000	      1.01155257	      0.26927948	     -0.05213817	     -0.13723105	      0.05038454	     -0.01633610	      0.04489106	      0.04163498	     -0.00193404	      0.00707179	      0.15566133	      0.03136687	      0.02594842	      0.19792485	     -0.10051486	     -0.11843851
